# xmcd CD database file
#
# Track frame offsets:
#	150
#	15278
#	34597
#	50217
#
# Disc length: 827 seconds
#
# Revision: 0
# Processed by: cddbd v1.4PL0 Copyright (c) Steve Scherf et al.
# Submitted via: CDex 1.40Release
#
DISCID=27033904
DTITLE=Buddy Miller - midnight and lonesome bonus disc
DYEAR=2002
DGENRE=Country
TTITLE0=Midnight and Lonesome (acoustic demo)
TTITLE1=When It Comes To You (mix #4)
TTITLE2=My Love Will Follow You (live)
TTITLE3=Hole In My Head (live)
EXTD=YEAR: 2002 ID3G: 2
EXTT0=
EXTT1=
EXTT2=
EXTT3=
PLAYORDER=
